<svg width="23" height="23" viewBox="0 0 23 23" fill="none" xmlns="http://www.w3.org/2000/svg">
<path d="M21.8374 18.6612C22.7162 19.5401 22.7162 20.9638 21.8374 21.8426C21.4015 22.282 20.8249 22.5 20.2484 22.5C19.6719 22.5 19.0968 22.2803 18.6581 21.8409L11.2491 14.4358L3.84087 21.8391C3.40145 22.282 2.82564 22.5 2.24982 22.5C1.67401 22.5 1.0989 22.282 0.659128 21.8391C-0.219709 20.9603 -0.219709 19.5366 0.659128 18.6577L8.06949 11.2474L0.659128 3.84052C-0.219709 2.96168 -0.219709 1.53797 0.659128 0.659128C1.53797 -0.219709 2.96168 -0.219709 3.84052 0.659128L11.2491 8.073L18.6595 0.662644C19.5383 -0.216194 20.962 -0.216194 21.8409 0.662644C22.7197 1.54148 22.7197 2.9652 21.8409 3.84404L14.4305 11.2544L21.8374 18.6612Z" fill="black"/>
</svg>
