<svg width="27" height="23" viewBox="0 0 27 23" fill="none" xmlns="http://www.w3.org/2000/svg">
<path d="M0 1.875C0 0.839648 0.839648 0 1.875 0H24.375C25.4121 0 26.25 0.839648 26.25 1.875C26.25 2.91211 25.4121 3.75 24.375 3.75H1.875C0.839648 3.75 0 2.91211 0 1.875ZM0 11.25C0 10.2129 0.839648 9.375 1.875 9.375H24.375C25.4121 9.375 26.25 10.2129 26.25 11.25C26.25 12.2871 25.4121 13.125 24.375 13.125H1.875C0.839648 13.125 0 12.2871 0 11.25ZM24.375 22.5H1.875C0.839648 22.5 0 21.6621 0 20.625C0 19.5879 0.839648 18.75 1.875 18.75H24.375C25.4121 18.75 26.25 19.5879 26.25 20.625C26.25 21.6621 25.4121 22.5 24.375 22.5Z" fill="#1E1E1E"/>
</svg>
